<?xml version="1.0" encoding="utf-8"?>
<!-- Generator: Adobe Illustrator 25.2.0, SVG Export Plug-In . SVG Version: 6.00 Build 0)  -->
<svg version="1.1" id="Слой_1" xmlns="http://www.w3.org/2000/svg" xmlns:xlink="http://www.w3.org/1999/xlink" x="0px" y="0px"
	 viewBox="0 0 500 500" style="enable-background:new 0 0 500 500;" xml:space="preserve">
<g>
	<path d="M448.1,4H51.9C24.9,4,3,25.9,3,52.9v0c0,27,21.9,48.9,48.9,48.9h396.1c27,0,48.9-21.9,48.9-48.9v0
		C497,25.9,475.1,4,448.1,4z"/>
	<path d="M448.1,398H51.9C24.9,398,3,419.9,3,446.9v0c0,27,21.9,48.9,48.9,48.9h396.1c27,0,48.9-21.9,48.9-48.9v0
		C497,419.9,475.1,398,448.1,398z"/>
	<path d="M448.1,202.1H51.9C24.9,202.1,3,224,3,251v0c0,27,21.9,48.9,48.9,48.9h396.1c27,0,48.9-21.9,48.9-48.9v0
		C497,224,475.1,202.1,448.1,202.1z"/>
</g>
</svg>
