<?xml version="1.0" encoding="utf-8"?>
<!-- Generator: Adobe Illustrator 25.2.0, SVG Export Plug-In . SVG Version: 6.00 Build 0)  -->
<svg version="1.1" id="Слой_1" xmlns="http://www.w3.org/2000/svg" xmlns:xlink="http://www.w3.org/1999/xlink" x="0px" y="0px"
	 viewBox="0 0 500 500" style="enable-background:new 0 0 500 500;" xml:space="preserve">
<style type="text/css">
	.st0{fill:url(#SVGID_1_);}
	.st1{fill:#FFFFFF;}
</style>
<linearGradient id="SVGID_1_" gradientUnits="userSpaceOnUse" x1="545.7532" y1="891.1052" x2="-45.7532" y2="1232.6117" gradientTransform="matrix(1 0 0 1 0 -811.8583)">
	<stop  offset="0" style="stop-color:#FF0000"/>
	<stop  offset="1" style="stop-color:#FF7900"/>
</linearGradient>
<rect class="st0" width="500" height="500"/>
<g>
	<path class="st1" d="M339.4,323H160.8c-9.3,0-16.9,7.6-16.9,16.9v111.2c0,9.3,7.6,16.9,16.9,16.9h178.6c9.3,0,16.9-7.6,16.9-16.9
		V339.9C356.1,330.6,348.5,323,339.4,323z"/>
	<path class="st1" d="M566.7,323H388.1c-9.3,0-16.9,7.6-16.9,16.9v111.2c0,9.3,7.6,16.9,16.9,16.9h178.6c9.3,0,16.9-7.6,16.9-16.9
		V339.9C583.5,330.6,575.9,323,566.7,323z M466.2,405.2l-22.5,22.5l-9.8-9.8l22.5-22.5l-22.5-22.5l9.8-9.8l22.5,22.5l9.8,9.8
		L466.2,405.2z"/>
	<path class="st1" d="M112,323H-66.7c-9.3,0-16.9,7.6-16.9,16.9v111.2c0,9.3,7.6,16.9,16.9,16.9H112c9.3,0,16.9-7.6,16.9-16.9V339.9
		C128.8,330.6,121.2,323,112,323z M66,417.9l-9.8,9.8l-22.5-22.5l-9.8-9.8l9.8-9.8l22.5-22.5l9.8,9.8l-22.4,22.5L66,417.9z"/>
</g>
<g>
	<path class="st1" d="M70.4,43.8c-8.5,0-15.1,2.3-19.5,7.2s-6.6,11.8-6.6,20.9v57.6c0,9,2.1,16.1,6.6,20.9c4.4,4.8,11,7.2,19.5,7.2
		s15.1-2.5,19.5-7.2c4.4-4.9,6.6-11.8,6.6-20.9v-14.8H80.1v16.1c0,3.9-1,6.7-2.5,8.4c-1.5,1.6-3.8,2.5-6.6,2.5c-2.6,0-5.1-1-6.6-2.5
		c-1.6-1.6-2.5-4.4-2.5-8.4V70.7c0-4.1,0.7-6.7,2.5-8.5c1.5-1.6,3.8-2.5,6.6-2.5c2.6,0,4.8,1,6.6,2.5c1.6,1.8,2.5,4.6,2.5,8.5v11.8
		h16.4V71.9c0-9-2.1-16.1-6.6-20.9C85.5,46.3,78.9,43.8,70.4,43.8z"/>
	<path class="st1" d="M126.6,45.1l-17.7,111.3h15.9l3.1-20.2h21.5l3.1,20.2h17.7L152.2,45.1H126.6z M130.3,121l8.5-56.3l8.4,56.3
		H130.3z"/>
	<path class="st1" d="M237.1,142.6v-17.1c0-5.9-1-10.8-2.5-14.9c-1.8-3.9-4.8-6.9-9.2-8.7c7.6-3.4,11.3-11.2,11.3-22.5v-8.7
		c0-8.5-2-15.1-6.1-19.2c-3.9-4.3-10.5-6.4-19.7-6.4h-26.3v111.2h17.6V111h6.1c3.9,0,6.9,1.1,8.7,3.3c1.8,2.3,2.6,5.7,2.6,11v17.6
		c0,2.1,0,3.8,0,5.4c0,1.6,0,3,0.2,3.8c0.2,1,0.5,1.8,0.7,2.5c0.2,0.5,0.5,1.3,0.7,2l17.6-0.2c-0.8-2.3-1.3-4.4-1.5-6.4
		C237.1,147.9,237.1,145.4,237.1,142.6z M219.3,83.2c0,4.4-1,7.4-2.8,9.2c-1.8,1.8-4.4,2.6-7.7,2.6h-6.7V60.9h8.4c3,0,5.3,1,6.7,2.6
		c1.5,1.6,2.1,4.8,2.1,8.7V83.2z"/>
	<path class="st1" d="M299.6,51c-4.6-4.8-11.2-7.2-19.7-7.2c-8.5,0-15.1,2.5-19.7,7.2c-4.6,4.9-6.7,11.8-6.7,20.9v57.8
		c0,9,2.1,16.1,6.7,20.9c4.6,4.8,11.2,7.2,19.7,7.2c8.5,0,15.1-2.3,19.7-7.2c4.6-4.9,6.7-11.8,6.7-20.9V71.9
		C306.4,62.8,304.2,55.8,299.6,51z M289,130.8c0,4.1-1,6.9-2.5,8.5c-1.5,1.6-3.8,2.5-6.6,2.5c-2.6,0-5.1-0.7-6.6-2.5
		c-1.6-1.8-2.5-4.6-2.5-8.5V70.6c0-4.1,0.7-6.7,2.5-8.5c1.5-1.6,3.8-2.5,6.6-2.5c2.6,0,4.8,1,6.6,2.5c1.6,1.8,2.5,4.6,2.5,8.5V130.8
		z"/>
	<path class="st1" d="M79.9,264.9c0,3.9-1,6.7-2.5,8.4c-1.5,1.6-3.8,2.5-6.6,2.5c-2.6,0-5.1-1-6.6-2.5c-1.6-1.6-2.5-4.4-2.5-8.4V179
		H44.1v84.7c0,9,2.1,16.1,6.6,20.9c4.4,4.8,11,7.2,19.5,7.2s15.1-2.5,19.5-7.2c4.4-4.9,6.6-11.8,6.6-20.9V179H79.9V264.9z"/>
	<path class="st1" d="M138.2,177.7c-8.5,0-14.8,2.5-19.2,7.2c-4.3,4.9-6.4,11.8-6.4,20.9c0,5.3,1,9.9,2,13.8
		c1.8,3.9,3.8,7.4,6.4,10.5c2.3,3.1,5.3,5.9,8,8.5c2.8,2.6,5.4,5.3,8,7.9c2.6,2.6,4.6,5.6,6.4,8.4c1.8,2.8,2.6,6.2,2.6,10
		c0,3.9-1,6.7-2.5,8.4c-1.5,1.6-3.8,2.5-6.6,2.5c-2.6,0-5.1-1-6.6-2.5c-1.6-1.6-2.5-4.4-2.5-8.4V257h-16.4v6.7
		c0,9,2.1,16.1,6.6,20.9s11,7.2,19.5,7.2s15.1-2.3,19.5-7.2c4.4-4.9,6.6-11.8,6.6-20.9c0-5.3-0.8-9.9-2.6-13.8
		c-1.8-3.9-3.8-7.4-6.4-10.5c-2.3-3.1-5.3-5.9-8-8.5s-5.4-5.3-8-7.9c-2.6-2.6-4.6-5.6-6.4-8.4c-1.8-2.8-2.6-6.2-2.6-10
		c0-4.1,1-6.7,2.5-8.5c1.6-1.6,3.6-2.5,6.4-2.5c2.6,0,4.9,1,6.4,2.5c1.6,1.8,2.5,4.6,2.5,8.5v4.6h16.4v-3.4c0-9-2-16.1-6.4-20.9
		C153.3,180.2,146.7,177.7,138.2,177.7z"/>
	<polygon class="st1" points="180.6,290.4 228.3,290.4 228.3,274.4 198,274.4 198,241.8 222.1,241.8 222.1,225.8 198.1,225.8 
		198.1,194.8 228.3,194.8 228.3,179 180.6,179 	"/>
	<polygon class="st1" points="262.8,179 245.4,179 245.4,290.2 291.6,290.2 291.6,274.3 262.8,274.3 	"/>
</g>
</svg>
