<?xml version="1.0" encoding="utf-8"?>
<!-- Generator: Adobe Illustrator 25.2.0, SVG Export Plug-In . SVG Version: 6.00 Build 0)  -->
<svg version="1.1" id="Слой_1" xmlns="http://www.w3.org/2000/svg" xmlns:xlink="http://www.w3.org/1999/xlink" x="0px" y="0px"
	 viewBox="0 0 500 500" style="enable-background:new 0 0 500 500;" xml:space="preserve">
<path d="M285.4,250L483.9,51.5c9.8-9.8,9.8-25.6,0-35.4l0,0c-9.8-9.8-25.6-9.8-35.4,0L250,214.6L51.5,16.1c-9.8-9.8-25.6-9.8-35.4,0
	v0c-9.8,9.8-9.8,25.6,0,35.4L214.6,250L16.1,448.5c-9.8,9.8-9.8,25.6,0,35.4v0c9.8,9.8,25.6,9.8,35.4,0L250,285.4l198.5,198.5
	c9.8,9.8,25.6,9.8,35.4,0l0,0c9.8-9.8,9.8-25.6,0-35.4L285.4,250z"/>
</svg>
