<?xml version="1.0" encoding="utf-8"?>
<!-- Generator: Adobe Illustrator 25.2.0, SVG Export Plug-In . SVG Version: 6.00 Build 0)  -->
<svg version="1.1" id="Слой_1" xmlns="http://www.w3.org/2000/svg" xmlns:xlink="http://www.w3.org/1999/xlink" x="0px" y="0px"
	 viewBox="0 0 320 320" style="enable-background:new 0 0 320 320;" xml:space="preserve">
<style type="text/css">
	.st0{fill:#5300AA;}
	.st1{fill:#FFCE00;}
	.st2{fill:#9CFF00;}
	.st3{fill:#00CFFF;}
	.st4{fill:#FF8500;}
	.st5{fill:#FF0000;}
</style>
<rect x="-3.4" y="0" class="st0" width="326.8" height="320"/>
<g>
	<path class="st1" d="M31.4,49h45.4v13.8H61.6v66.6H46.7V62.8H31.4V49L31.4,49z"/>
	<path class="st1" d="M95.3,105.9c3,8.1,8.7,12.2,16.9,12.2c6.4,0,11-2.6,13.7-8h14.8c-1.6,5.3-4.9,10.1-10.1,14.5
		c-5.2,4.4-11.1,6.6-18.1,6.6c-9.6,0-17.1-3.1-23.1-9.3c-5.8-6.3-8.9-13.7-8.9-22.4c0-9.3,3-17,9-23.1c6.2-6.2,13.6-9.1,22.6-9.1
		c8.4,0,15.6,3.1,21.6,9.2c6,6.1,9,13.5,9,21.9c0,2.9-0.2,5.3-0.8,7.4H95l0,0H95.3z M95,94.4h32.7c-1.8-9.1-7.3-13.7-16.3-13.7
		C103,80.6,97.5,85.1,95,94.4z"/>
	<path class="st1" d="M155.6,49h14.5v20.3h8.5V82h-8.5v47.2h-14.5V82h-7V69.2h7V49z"/>
	<path class="st1" d="M185.6,69.2H199v6.2c2.9-5.4,7-8,12.4-8h1.3v14c-4.4,0.2-7.6,1.5-9.7,3.7c-2,2.2-3,5.4-3,9.7v34.7h-14.5V69.2
		H185.6z"/>
	<path class="st1" d="M219.4,49.3h14.5v13.1h-14.5V49.3z M219.4,69.2h14.5v60.1h-14.5V69.2z"/>
	<path class="st1" d="M255.8,110.1c0.7,5.4,3.5,8,8.4,8c1.8,0,3.3-0.7,4.6-1.8c1.2-1.2,2-2.6,2-4.4c0-2.5-2-4.5-5.8-6l-8.5-3.3
		c-8.5-3.3-12.7-8.9-12.7-16.9c0-5.3,2-9.7,5.8-13.1c4-3.5,8.8-5.3,14.2-5.3c5.8,0,10.7,1.9,14.3,5.6c3.7,3.7,5.5,8.1,5.5,13h-14.5
		c-0.4-3.6-2.4-5.5-5.6-5.5c-1.5,0-2.7,0.4-3.7,1.6c-1,1-1.6,2.2-1.6,3.7c0,1.1,0.3,2,1.2,2.7c0.8,0.8,1.9,1.3,3.4,1.9l6.5,2.1
		c10.7,3.6,16,9.3,16,17.3c0,6.5-2,11.6-6.2,15.5c-4,3.8-9,5.7-14.8,5.7c-6.3,0-11.3-1.6-15.5-4.8c-4.2-3.3-6.6-8.7-7.5-16.4H256
		v0.2H255.8z"/>
</g>
<g>
	<path class="st2" d="M86,290H72.4c-3.9,0-7.1-3.1-7.1-7.1v-13.6c0-3.9,3.1-7.1,7.1-7.1H86c3.9,0,7.1,3.1,7.1,7.1v13.6
		C92.9,286.9,89.8,290,86,290z"/>
	<path class="st2" d="M118.6,290H105c-3.9,0-7.1-3.1-7.1-7.1v-13.6c0-3.9,3.1-7.1,7.1-7.1h13.6c3.9,0,7.1,3.1,7.1,7.1v13.6
		C125.7,286.9,122.6,290,118.6,290z"/>
	<path class="st3" d="M151.4,290h-13.6c-3.9,0-7.1-3.1-7.1-7.1v-13.6c0-3.9,3.1-7.1,7.1-7.1h13.6c3.9,0,7.1,3.1,7.1,7.1v13.6
		C158.5,286.9,155.4,290,151.4,290z"/>
	<path class="st1" d="M184.2,290h-13.6c-3.9,0-7.1-3.1-7.1-7.1v-13.6c0-3.9,3.1-7.1,7.1-7.1h13.6c3.9,0,7.1,3.1,7.1,7.1v13.6
		C191.1,286.9,188,290,184.2,290z"/>
	<path class="st1" d="M216.9,290h-13.6c-3.9,0-7.1-3.1-7.1-7.1v-13.6c0-3.9,3.1-7.1,7.1-7.1h13.6c3.9,0,7.1,3.1,7.1,7.1v13.6
		C223.9,286.9,220.8,290,216.9,290z"/>
	<path class="st2" d="M249.7,290H236c-3.9,0-7.1-3.1-7.1-7.1v-13.6c0-3.9,3.1-7.1,7.1-7.1h13.6c3.9,0,7.1,3.1,7.1,7.1v13.6
		C256.7,286.9,253.6,290,249.7,290z"/>
	<path class="st4" d="M282.4,290h-13.6c-3.9,0-7.1-3.1-7.1-7.1v-13.6c0-3.9,3.1-7.1,7.1-7.1h13.6c3.9,0,7.1,3.1,7.1,7.1v13.6
		C289.4,286.9,286.2,290,282.4,290z"/>
	<path class="st3" d="M53.2,255.6H39.6c-3.9,0-7.1-3.1-7.1-7.1v-13.6c0-3.9,3.1-7.1,7.1-7.1h13.6c3.9,0,7.1,3.1,7.1,7.1v13.6
		C60.1,252.6,57.1,255.6,53.2,255.6z"/>
	<path class="st3" d="M86,255.6H72.4c-3.9,0-7.1-3.1-7.1-7.1v-13.6c0-3.9,3.1-7.1,7.1-7.1H86c3.9,0,7.1,3.1,7.1,7.1v13.6
		C92.9,252.6,89.8,255.6,86,255.6z"/>
	<path class="st2" d="M118.6,255.6H105c-3.9,0-7.1-3.1-7.1-7.1v-13.6c0-3.9,3.1-7.1,7.1-7.1h13.6c3.9,0,7.1,3.1,7.1,7.1v13.6
		C125.7,252.6,122.6,255.6,118.6,255.6z"/>
	<path class="st1" d="M151.4,255.6h-13.6c-3.9,0-7.1-3.1-7.1-7.1v-13.6c0-3.9,3.1-7.1,7.1-7.1h13.6c3.9,0,7.1,3.1,7.1,7.1v13.6
		C158.5,252.6,155.4,255.6,151.4,255.6z"/>
	<path class="st1" d="M184.2,255.6h-13.6c-3.9,0-7.1-3.1-7.1-7.1v-13.6c0-3.9,3.1-7.1,7.1-7.1h13.6c3.9,0,7.1,3.1,7.1,7.1v13.6
		C191.1,252.6,188,255.6,184.2,255.6z"/>
	<path class="st5" d="M216.9,255.6h-13.6c-3.9,0-7.1-3.1-7.1-7.1v-13.6c0-3.9,3.1-7.1,7.1-7.1h13.6c3.9,0,7.1,3.1,7.1,7.1v13.6
		C223.9,252.6,220.8,255.6,216.9,255.6z"/>
	<path class="st2" d="M249.7,255.6H236c-3.9,0-7.1-3.1-7.1-7.1v-13.6c0-3.9,3.1-7.1,7.1-7.1h13.6c3.9,0,7.1,3.1,7.1,7.1v13.6
		C256.7,252.6,253.6,255.6,249.7,255.6z"/>
	<path class="st3" d="M53.2,221.4H39.6c-3.9,0-7.1-3.1-7.1-7.1v-13.6c0-3.9,3.1-7.1,7.1-7.1h13.6c3.9,0,7.1,3.1,7.1,7.1v13.6
		C60.1,218.3,57.1,221.4,53.2,221.4z"/>
	<path class="st2" d="M118.6,221.4H105c-3.9,0-7.1-3.1-7.1-7.1v-13.6c0-3.9,3.1-7.1,7.1-7.1h13.6c3.9,0,7.1,3.1,7.1,7.1v13.6
		C125.7,218.3,122.6,221.4,118.6,221.4z"/>
	<path class="st5" d="M216.9,221.4h-13.6c-3.9,0-7.1-3.1-7.1-7.1v-13.6c0-3.9,3.1-7.1,7.1-7.1h13.6c3.9,0,7.1,3.1,7.1,7.1v13.6
		C223.9,218.3,220.8,221.4,216.9,221.4z"/>
	<path class="st5" d="M249.7,221.4H236c-3.9,0-7.1-3.1-7.1-7.1v-13.6c0-3.9,3.1-7.1,7.1-7.1h13.6c3.9,0,7.1,3.1,7.1,7.1v13.6
		C256.7,218.3,253.6,221.4,249.7,221.4z"/>
	<path class="st5" d="M282.4,221.4h-13.6c-3.9,0-7.1-3.1-7.1-7.1v-13.6c0-3.9,3.1-7.1,7.1-7.1h13.6c3.9,0,7.1,3.1,7.1,7.1v13.6
		C289.4,218.3,286.2,221.4,282.4,221.4z"/>
</g>
</svg>
