<?xml version="1.0" encoding="utf-8"?>
<!-- Generator: Adobe Illustrator 25.2.0, SVG Export Plug-In . SVG Version: 6.00 Build 0)  -->
<svg version="1.1" id="Слой_1" xmlns="http://www.w3.org/2000/svg" xmlns:xlink="http://www.w3.org/1999/xlink" x="0px" y="0px"
	 viewBox="0 0 320 320" style="enable-background:new 0 0 320 320;" xml:space="preserve">
<style type="text/css">
	.st0{fill:#FFFFFF;}
</style>
<rect x="0" y="0" width="320" height="320"/>
<g>
	<path class="st0" d="M87.2,58.2v18.4h-11v11.3c0,1.7,0.5,3,1.3,3.8s2.1,1.3,3.7,1.4s3.6,0.1,6,0v17.4c-10.9,1.5-18.6,0.7-23.3-2.8
		c-4.6-3.4-7-9.6-7-18.8V76.6h-7.3V58.2h7.3v-8.9l19.4-5.7v14.6C76.3,58.2,87.2,58.2,87.2,58.2z"/>
	<path class="st0" d="M145.5,91h-34.7c1.7,3.5,5.2,5.2,10.7,5.2c3.1,0,6.2-1,8.9-3.4l12.7,10.7c-5.2,5.7-12.5,8.5-22.2,8.5
		c-8.8,0-16-2.6-21.5-7.8C94,99,91.3,92.4,91.3,84.6c0-8,2.6-14.5,7.9-19.9c5.2-5.2,12-8,20-8s14.5,2.6,19.5,7.9
		c5.1,5.1,7.8,11.7,7.8,19.5C146.3,86.4,145.9,88.7,145.5,91z M110.4,78.6h17.5c-1-4.2-4-6.3-8.5-6.3C115,72.3,112,74.4,110.4,78.6z
		"/>
	<path class="st0" d="M185.8,83.8l19,26.8h-21.4L175,98.9l-8.4,11.7h-21.4l19.2-26.8L146,58.4h21.4l7.5,10.6l7.5-10.6h21.4
		L185.8,83.8z"/>
	<path class="st0" d="M243.5,58.2v18.4h-10.9v11.3c0,1.7,0.5,3,1.3,3.8s2.1,1.3,3.7,1.4c1.6,0.1,3.6,0.1,6,0v17.4
		c-10.9,1.5-18.6,0.7-23.3-2.8c-4.6-3.4-7-9.6-7-18.8V76.6H206V58.2h7.3v-8.9l19.4-5.7v14.6C232.7,58.2,243.5,58.2,243.5,58.2z"/>
	<path class="st0" d="M78.3,190.4c-8,0-14.6-2.6-20-7.9c-5.2-5.2-8-12-8-19.7c0-7.9,2.7-14.4,8-19.6c5.2-5.2,12-8,20-8
		c5.1,0,9.9,1.3,14.2,3.7c4.3,2.4,7.7,5.8,9.9,10L86,158.3c-1.7-2.9-4.3-4.4-7.8-4.4c-2.4,0-4.5,0.8-6.2,2.6
		c-1.6,1.7-2.4,3.8-2.4,6.5c0,2.6,0.8,4.8,2.4,6.5s3.6,2.6,6.2,2.6c3.6,0,6.3-1.5,7.8-4.5l16.4,9.4c-2.2,4.3-5.6,7.7-9.9,10
		C88.2,189.1,83.6,190.4,78.3,190.4z"/>
	<path class="st0" d="M131.9,190.4c-7.9,0-14.5-2.7-20-8c-5.5-5.2-8.1-11.8-8.1-19.6c0-7.9,2.7-14.4,8.1-19.6c5.3-5.2,12.1-8,20-8
		s14.6,2.7,20,8c5.5,5.3,8.1,12,8.1,19.6c0,7.9-2.7,14.4-8.1,19.6C146.4,187.7,139.9,190.4,131.9,190.4z M125.5,169.5
		c1.7,1.7,3.7,2.4,6.4,2.4s4.6-0.8,6.3-2.4c1.7-1.9,2.4-4.1,2.4-6.6c0-2.7-0.8-5-2.4-6.5c-1.5-1.7-3.6-2.6-6.3-2.6s-4.8,0.8-6.4,2.6
		c-1.6,1.7-2.3,4-2.3,6.5C123,165.4,123.9,167.6,125.5,169.5z"/>
	<path class="st0" d="M198.4,163.6v-26.8h19.4V189h-19.4v-5.1c-3.2,4.4-7.9,6.5-13.9,6.5c-5.8,0-10.4-2.1-13.8-6
		c-3.5-4-5.1-9.9-5.1-17.4v-30.2H185V165c0,4.6,2.2,7,6.5,7c2.2,0,4.1-0.7,5.2-2.2C197.8,168.1,198.4,166.1,198.4,163.6z"/>
	<path class="st0" d="M259.5,135.2c5.8,0,10.4,2.1,13.8,6c3.4,4.1,5.1,9.9,5.1,17.4v30.3H259v-28.2c0-4.6-2.2-7-6.5-7
		c-2.2,0-4.1,0.7-5.2,2.2c-1.2,1.5-1.9,3.5-1.9,6v26.8H226v-52.2h19.4v5.1C248.7,137.3,253.5,135.2,259.5,135.2z"/>
	<path class="st0" d="M87.2,215.1v18.4h-11v11.3c0,1.7,0.5,3,1.3,3.8s2.1,1.3,3.7,1.4c1.6,0.1,3.6,0.1,6,0v17.3
		c-10.9,1.5-18.6,0.7-23.3-2.8c-4.6-3.4-7-9.6-7-18.8v-12.3h-7.3V215h7.3v-8.9l19.4-5.7V215L87.2,215.1L87.2,215.1z"/>
	<path class="st0" d="M145.5,247.8h-34.7c1.7,3.5,5.2,5.2,10.7,5.2c3.1,0,6.2-1,8.9-3.4l12.7,10.7c-5.2,5.7-12.5,8.5-22.2,8.5
		c-8.8,0-16-2.6-21.5-7.8c-5.3-5.2-8-11.8-8-19.6c0-8,2.6-14.5,7.9-19.9c5.2-5.2,12-8,20-8s14.5,2.6,19.5,7.9
		c5.1,5.1,7.8,11.7,7.8,19.5C146.3,243.1,145.9,245.5,145.5,247.8z M110.4,235.4h17.5c-1-4.2-4-6.3-8.5-6.3
		C115,229.1,112,231.2,110.4,235.4z"/>
	<path class="st0" d="M171.4,215.1v10.1c0.9-3.5,2.9-6.3,5.7-8.1c2.8-1.9,6.2-3,10-3V235c-4.2-0.6-7.9,0.3-10.9,2.4
		c-3.1,2.2-4.8,5.7-4.8,10.4v19.5H152V215h19.4V215.1L171.4,215.1z"/>
</g>
<rect x="206.4" y="202.8" class="st0" width="5.3" height="70.4"/>
<rect x="198" y="202.8" class="st0" width="22.4" height="5.3"/>
<rect x="198" y="268.4" class="st0" width="22.4" height="5.3"/>
</svg>
